<svg xmlns="http://www.w3.org/2000/svg" viewBox="0 0 792.43 89.30" width="792" height="89" fill="none">
<polygon points="44.65,9.51 75.08,27.08 75.08,62.22 44.65,79.79 14.22,62.22 14.22,27.08" fill="none" stroke="#7AE6DE" stroke-width="4.73" stroke-linejoin="round"/>
<line x1="44.65" y1="44.65" x2="44.65" y2="9.51" stroke="#3DC9C2" stroke-width="2.60"/>
<line x1="44.65" y1="44.65" x2="75.08" y2="62.22" stroke="#3DC9C2" stroke-width="2.60"/>
<line x1="44.65" y1="44.65" x2="14.22" y2="62.22" stroke="#3DC9C2" stroke-width="2.60"/>
<circle cx="44.65" cy="44.65" r="6.32" fill="#7AE6DE"/>
<circle cx="44.65" cy="9.51" r="7.38" fill="#3DC9C2"/>
<circle cx="75.08" cy="62.22" r="7.38" fill="#3DC9C2"/>
<circle cx="14.22" cy="62.22" r="7.38" fill="#3DC9C2"/>
<g fill="#7AE6DE" transform="translate(97.30,63.28) scale(0.03516,-0.03516)">
<path transform="translate(0,0)" d="M164 0V1434H686Q926 1434 1055.0 1346.0Q1184 1258 1184 1098Q1184 982 1105.5 895.0Q1027 808 905 774V770Q1058 751 1149.5 657.0Q1241 563 1241 428Q1241 231 1100.0 115.5Q959 0 715 0ZM487 1196V856H629Q729 856 786.5 904.5Q844 953 844 1038Q844 1196 608 1196ZM487 616V238H662Q774 238 837.5 290.0Q901 342 901 432Q901 518 838.5 567.0Q776 616 664 616Z"/>
<path transform="translate(1313,0)" d="M293 1186Q213 1186 162.0 1233.5Q111 1281 111 1350Q111 1421 162.0 1466.0Q213 1511 293 1511Q374 1511 424.5 1466.0Q475 1421 475 1350Q475 1278 424.5 1232.0Q374 1186 293 1186ZM449 0H133V1024H449Z"/>
<path transform="translate(1895,0)" d="M621 -25Q365 -25 218.5 118.5Q72 262 72 508Q72 762 224.0 905.5Q376 1049 635 1049Q890 1049 1035.0 905.5Q1180 762 1180 526Q1180 271 1030.5 123.0Q881 -25 621 -25ZM629 807Q517 807 455.0 730.0Q393 653 393 512Q393 217 631 217Q858 217 858 520Q858 807 629 807Z"/>
<path transform="translate(3147,0)" d="M453 119H449V-471H133V1024H449V870H453Q570 1049 782 1049Q981 1049 1089.5 912.5Q1198 776 1198 541Q1198 285 1071.5 130.0Q945 -25 735 -25Q550 -25 453 119ZM444 539V457Q444 351 500.0 284.0Q556 217 647 217Q755 217 814.5 300.5Q874 384 874 537Q874 807 664 807Q567 807 505.5 733.5Q444 660 444 539Z"/>
<path transform="translate(4417,0)" d="M801 739Q744 770 668 770Q565 770 507.0 694.5Q449 619 449 489V0H133V1024H449V834H453Q528 1042 723 1042Q773 1042 801 1030Z"/>
<path transform="translate(5232,0)" d="M621 -25Q365 -25 218.5 118.5Q72 262 72 508Q72 762 224.0 905.5Q376 1049 635 1049Q890 1049 1035.0 905.5Q1180 762 1180 526Q1180 271 1030.5 123.0Q881 -25 621 -25ZM629 807Q517 807 455.0 730.0Q393 653 393 512Q393 217 631 217Q858 217 858 520Q858 807 629 807Z"/>
<path transform="translate(6484,0)" d="M909 37Q802 -25 600 -25Q364 -25 218.0 118.0Q72 261 72 487Q72 748 228.5 898.5Q385 1049 647 1049Q828 1049 909 1001V733Q810 807 688 807Q552 807 472.5 727.5Q393 648 393 508Q393 372 469.0 294.5Q545 217 678 217Q796 217 909 291Z"/>
<path transform="translate(7467,0)" d="M1053 422H385Q401 199 666 199Q835 199 963 279V51Q821 -25 594 -25Q346 -25 209.0 112.5Q72 250 72 496Q72 751 220.0 900.0Q368 1049 584 1049Q808 1049 930.5 916.0Q1053 783 1053 555ZM760 616Q760 836 582 836Q506 836 450.5 773.0Q395 710 383 616Z"/>
<path transform="translate(8575,0)" d="M66 27V283Q144 236 221.5 213.0Q299 190 368 190Q452 190 500.5 213.0Q549 236 549 283Q549 313 527.0 333.0Q505 353 470.5 368.0Q436 383 395.0 395.0Q354 407 316 422Q255 445 208.5 471.5Q162 498 130.5 533.0Q99 568 82.5 614.0Q66 660 66 723Q66 809 103.5 871.0Q141 933 203.5 972.5Q266 1012 346.5 1030.5Q427 1049 514 1049Q582 1049 652.0 1038.5Q722 1028 790 1008V764Q730 799 661.5 816.5Q593 834 527 834Q496 834 468.5 828.5Q441 823 420.0 812.5Q399 802 387.0 785.5Q375 769 375 748Q375 720 393.0 700.0Q411 680 440.0 665.5Q469 651 504.5 639.5Q540 628 575 616Q638 594 689.0 568.0Q740 542 776.5 507.0Q813 472 832.5 425.0Q852 378 852 313Q852 222 812.5 157.5Q773 93 707.5 52.5Q642 12 556.5 -6.5Q471 -25 379 -25Q210 -25 66 27Z"/>
<path transform="translate(9476,0)" d="M66 27V283Q144 236 221.5 213.0Q299 190 368 190Q452 190 500.5 213.0Q549 236 549 283Q549 313 527.0 333.0Q505 353 470.5 368.0Q436 383 395.0 395.0Q354 407 316 422Q255 445 208.5 471.5Q162 498 130.5 533.0Q99 568 82.5 614.0Q66 660 66 723Q66 809 103.5 871.0Q141 933 203.5 972.5Q266 1012 346.5 1030.5Q427 1049 514 1049Q582 1049 652.0 1038.5Q722 1028 790 1008V764Q730 799 661.5 816.5Q593 834 527 834Q496 834 468.5 828.5Q441 823 420.0 812.5Q399 802 387.0 785.5Q375 769 375 748Q375 720 393.0 700.0Q411 680 440.0 665.5Q469 651 504.5 639.5Q540 628 575 616Q638 594 689.0 568.0Q740 542 776.5 507.0Q813 472 832.5 425.0Q852 378 852 313Q852 222 812.5 157.5Q773 93 707.5 52.5Q642 12 556.5 -6.5Q471 -25 379 -25Q210 -25 66 27Z"/>
</g>
<g fill="#3DC9C2" transform="translate(462.12,63.28) scale(0.03516,-0.03516)">
<path transform="translate(0,0)" d=""/>
<path transform="translate(565,0)" d="M1425 0H1073L971 319H461L360 0H10L532 1434H915ZM897 567 743 1049Q726 1103 719 1178H711Q706 1115 686 1053L530 567Z"/>
<path transform="translate(2005,0)" d="M66 27V283Q144 236 221.5 213.0Q299 190 368 190Q452 190 500.5 213.0Q549 236 549 283Q549 313 527.0 333.0Q505 353 470.5 368.0Q436 383 395.0 395.0Q354 407 316 422Q255 445 208.5 471.5Q162 498 130.5 533.0Q99 568 82.5 614.0Q66 660 66 723Q66 809 103.5 871.0Q141 933 203.5 972.5Q266 1012 346.5 1030.5Q427 1049 514 1049Q582 1049 652.0 1038.5Q722 1028 790 1008V764Q730 799 661.5 816.5Q593 834 527 834Q496 834 468.5 828.5Q441 823 420.0 812.5Q399 802 387.0 785.5Q375 769 375 748Q375 720 393.0 700.0Q411 680 440.0 665.5Q469 651 504.5 639.5Q540 628 575 616Q638 594 689.0 568.0Q740 542 776.5 507.0Q813 472 832.5 425.0Q852 378 852 313Q852 222 812.5 157.5Q773 93 707.5 52.5Q642 12 556.5 -6.5Q471 -25 379 -25Q210 -25 66 27Z"/>
<path transform="translate(2906,0)" d="M66 27V283Q144 236 221.5 213.0Q299 190 368 190Q452 190 500.5 213.0Q549 236 549 283Q549 313 527.0 333.0Q505 353 470.5 368.0Q436 383 395.0 395.0Q354 407 316 422Q255 445 208.5 471.5Q162 498 130.5 533.0Q99 568 82.5 614.0Q66 660 66 723Q66 809 103.5 871.0Q141 933 203.5 972.5Q266 1012 346.5 1030.5Q427 1049 514 1049Q582 1049 652.0 1038.5Q722 1028 790 1008V764Q730 799 661.5 816.5Q593 834 527 834Q496 834 468.5 828.5Q441 823 420.0 812.5Q399 802 387.0 785.5Q375 769 375 748Q375 720 393.0 700.0Q411 680 440.0 665.5Q469 651 504.5 639.5Q540 628 575 616Q638 594 689.0 568.0Q740 542 776.5 507.0Q813 472 832.5 425.0Q852 378 852 313Q852 222 812.5 157.5Q773 93 707.5 52.5Q642 12 556.5 -6.5Q471 -25 379 -25Q210 -25 66 27Z"/>
<path transform="translate(3807,0)" d="M293 1186Q213 1186 162.0 1233.5Q111 1281 111 1350Q111 1421 162.0 1466.0Q213 1511 293 1511Q374 1511 424.5 1466.0Q475 1421 475 1350Q475 1278 424.5 1232.0Q374 1186 293 1186ZM449 0H133V1024H449Z"/>
<path transform="translate(4389,0)" d="M66 27V283Q144 236 221.5 213.0Q299 190 368 190Q452 190 500.5 213.0Q549 236 549 283Q549 313 527.0 333.0Q505 353 470.5 368.0Q436 383 395.0 395.0Q354 407 316 422Q255 445 208.5 471.5Q162 498 130.5 533.0Q99 568 82.5 614.0Q66 660 66 723Q66 809 103.5 871.0Q141 933 203.5 972.5Q266 1012 346.5 1030.5Q427 1049 514 1049Q582 1049 652.0 1038.5Q722 1028 790 1008V764Q730 799 661.5 816.5Q593 834 527 834Q496 834 468.5 828.5Q441 823 420.0 812.5Q399 802 387.0 785.5Q375 769 375 748Q375 720 393.0 700.0Q411 680 440.0 665.5Q469 651 504.5 639.5Q540 628 575 616Q638 594 689.0 568.0Q740 542 776.5 507.0Q813 472 832.5 425.0Q852 378 852 313Q852 222 812.5 157.5Q773 93 707.5 52.5Q642 12 556.5 -6.5Q471 -25 379 -25Q210 -25 66 27Z"/>
<path transform="translate(5290,0)" d="M752 12Q682 -25 541 -25Q207 -25 207 322V791H41V1024H207V1245L522 1335V1024H752V791H522V377Q522 217 649 217Q699 217 752 246Z"/>
<path transform="translate(6087,0)" d="M985 0H686V147H682Q579 -25 377 -25Q228 -25 142.5 59.5Q57 144 57 285Q57 583 410 629L688 666Q688 834 506 834Q323 834 158 725V963Q224 997 338.5 1023.0Q453 1049 547 1049Q985 1049 985 612ZM688 416V485L502 461Q348 441 348 322Q348 268 385.5 233.5Q423 199 487 199Q576 199 632.0 260.5Q688 322 688 416Z"/>
<path transform="translate(7189,0)" d="M1122 0H807V569Q807 807 637 807Q555 807 502.0 744.0Q449 681 449 584V0H133V1024H449V862H453Q566 1049 782 1049Q1122 1049 1122 627Z"/>
<path transform="translate(8428,0)" d="M752 12Q682 -25 541 -25Q207 -25 207 322V791H41V1024H207V1245L522 1335V1024H752V791H522V377Q522 217 649 217Q699 217 752 246Z"/>
</g>
</svg>